<?xml version="1.0" encoding="utf-8"?>
<!-- Generator: Adobe Illustrator 16.0.4, SVG Export Plug-In . SVG Version: 6.00 Build 0)  -->
<!DOCTYPE svg PUBLIC "-//W3C//DTD SVG 1.1//EN" "http://www.w3.org/Graphics/SVG/1.1/DTD/svg11.dtd">
<svg version="1.1" id="_x32_" xmlns="http://www.w3.org/2000/svg" xmlns:xlink="http://www.w3.org/1999/xlink" x="0px" y="0px"
	 width="50px" height="50px" viewBox="0 0 50 50" enable-background="new 0 0 50 50" xml:space="preserve">
<g>
	<path fill="#4B4B4B" d="M9.585,13.594l0.002,0.016l4.351-0.532c0.487,1.013,0.972,2.026,1.456,3.041l-2.399,5.374
		c-3.498-1.207-7.493-0.216-10.094,2.385c-3.014,3.015-3.753,7.73-1.794,11.522c0.935,1.809,2.44,3.325,4.254,4.254
		c1.399,0.727,2.974,1.102,4.55,1.092c2.628,0,5.099-1.027,6.957-2.895c1.531-1.521,2.766-3.798,2.833-5.996
		c0.928,0,1.855,0,2.783,0c0.686,0,1.5,0.156,1.931-0.513c1.06-1.65,2.121-3.301,3.18-4.951c1.812-2.821,3.627-5.64,5.443-8.458
		l2.002,4.167c-0.692,0.407-1.345,0.92-1.914,1.487c-3.793,3.811-3.805,10.166,0,13.974c3.809,3.809,10.173,3.809,13.981,0
		c3.816-3.799,3.804-10.171,0-13.973c-2.56-2.559-6.851-3.772-10.283-2.31c-1.572-3.276-3.145-6.552-4.71-9.832
		c1.089,0,2.761-0.322,3.77,0.17c0.326,0.174,0.582,0.438,0.764,0.785c0.318,0.599,0.394,1.393,0.155,2.033
		c-0.075,0.226-0.195,0.425-0.347,0.599l1.395,1.381c1.465-1.433,1.349-4.03,0.137-5.567c-1.398-1.794-3.929-1.379-5.933-1.379
		c-1.546,0-3.091-0.014-4.636,0.015l0.016,1.964l2.494-0.009l1.746,3.621L17.08,15.065c-0.36-0.741-0.721-1.481-1.075-2.225
		l4.353-0.544c0.007-1.008,0.009-2.016,0.022-3.023h0V9.256L9.548,9.272c-0.005,0-0.01,0-0.016,0 M44.875,35.335
		c-1.266,1.266-2.955,1.966-4.759,1.974c-1.804-0.008-3.493-0.708-4.759-1.974c-2.533-2.55-2.607-6.782-0.115-9.39
		c0.325-0.378,0.74-0.702,1.15-0.982c1.027,2.101,2.021,4.218,3.029,6.328c0.236,0.504,0.823,0.692,1.32,0.471
		c0.24-0.114,0.422-0.316,0.509-0.567c0.087-0.249,0.07-0.517-0.046-0.752c-1.006-2.105-2.005-4.213-3.03-6.309
		c2.34-0.726,4.973-0.034,6.7,1.683c1.268,1.269,1.967,2.959,1.967,4.76C46.842,32.369,46.143,34.059,44.875,35.335
		C43.609,36.601,46.143,34.059,44.875,35.335z M21.984,29.873l-2.269,0.016c-0.274-3.054-2.167-6.171-4.936-7.584l1.725-3.843
		 M12.869,29.889h-1.504c0.707-1.566,1.417-3.132,2.117-4.702c1.628,1.02,2.785,2.784,3.073,4.686L12.869,29.889z M11.683,24.37
		c-0.459,1.004-0.909,2.012-1.362,3.019c-0.464,1.033-1.157,2.137-1.408,3.251c-0.069,0.294,0.001,0.608,0.19,0.842
		c0.19,0.236,0.475,0.372,0.781,0.372c2.219-0.006,4.438-0.016,6.658-0.016c-0.211,1.436-0.881,2.763-1.906,3.788
		c-1.266,1.266-2.953,1.967-4.751,1.974c-1.803-0.007-3.494-0.708-4.759-1.974c-2.597-2.597-2.597-6.921,0-9.518
		C6.813,24.431,9.375,23.726,11.683,24.37z M18.023,17.028l13.266-0.015l-7.615,11.839L18.023,17.028z"/>
</g>
</svg>
