<?xml version="1.0" encoding="utf-8"?>
<!-- Generator: Adobe Illustrator 16.0.4, SVG Export Plug-In . SVG Version: 6.00 Build 0)  -->
<!DOCTYPE svg PUBLIC "-//W3C//DTD SVG 1.1//EN" "http://www.w3.org/Graphics/SVG/1.1/DTD/svg11.dtd">
<svg version="1.1" id="_x32_" xmlns="http://www.w3.org/2000/svg" xmlns:xlink="http://www.w3.org/1999/xlink" x="0px" y="0px"
	 width="60px" height="60px" viewBox="0 0 60 60" enable-background="new 0 0 60 60" xml:space="preserve">
<g>
	<path fill="#4B4B4B" d="M47.281,46.293c-15.141,0-27.415-12.275-27.415-27.417c0-7.317,2.87-13.96,7.544-18.876
		C12.809,2.104,1.589,14.659,1.589,29.843C1.589,46.498,15.091,60,31.746,60c11.564,0,21.605-6.514,26.664-16.068
		C55.008,45.443,51.246,46.293,47.281,46.293z"/>
	<path fill="#4B4B4B" d="M40.973,21.015c0.123,0.119,0.178,0.291,0.148,0.459l-1.004,5.852c-0.031,0.196,0.049,0.392,0.207,0.509
		c0.16,0.115,0.371,0.13,0.547,0.038l5.256-2.763c0.15-0.081,0.33-0.081,0.482,0l5.256,2.763c0.174,0.092,0.387,0.077,0.547-0.038
		c0.158-0.117,0.238-0.313,0.205-0.509l-1.004-5.852c-0.029-0.168,0.025-0.341,0.148-0.459l4.254-4.144
		c0.141-0.137,0.191-0.344,0.131-0.531c-0.062-0.187-0.223-0.326-0.418-0.354l-5.877-0.855c-0.168-0.024-0.314-0.13-0.391-0.282
		l-2.629-5.326c-0.086-0.178-0.27-0.288-0.465-0.288s-0.377,0.11-0.465,0.288l-2.629,5.326c-0.074,0.152-0.223,0.258-0.391,0.282
		l-5.875,0.855c-0.197,0.028-0.359,0.167-0.42,0.354s-0.01,0.394,0.131,0.531L40.973,21.015z"/>
</g>
</svg>
