<!--?xml version="1.0" encoding="utf-8"?-->
<!-- Generator: Adobe Illustrator 15.1.0, SVG Export Plug-In . SVG Version: 6.00 Build 0)  -->

<svg version="1.1" id="_x32_" xmlns="http://www.w3.org/2000/svg" xmlns:xlink="http://www.w3.org/1999/xlink" x="0px" y="0px" width="512px" height="512px" viewBox="0 0 512 512" style="width: 256px; height: 256px; opacity: 1;" xml:space="preserve">
<g>
	<path fill="#ffffff" d="M96,0v512h128v-80h64v80h128V0H96z M184,325.328h-48v-64h48V325.328z M184,213.328h-48v-64h48V213.328z
		 M184,101.328h-48v-64h48V101.328z M280,325.328h-48v-64h48V325.328z M280,213.328h-48v-64h48V213.328z M280,101.328h-48v-64h48
		V101.328z M376,325.328h-48v-64h48V325.328z M376,213.328h-48v-64h48V213.328z M376,101.328h-48v-64h48V101.328z"></path>
</g>
</svg>
